<svg width="500" height="184" viewBox="0 0 500 184" fill="none" xmlns="http://www.w3.org/2000/svg">
<g clip-path="url(#clip0)">
<rect width="500" height="184" fill="white"/>
<path d="M112.544 76.4939C112.544 52.1969 91.5599 32.8196 66.6605 35.6308C48.0864 37.7392 32.9259 52.5985 30.5163 71.1727C29.0103 82.7187 32.4239 93.4616 38.8495 101.694C46.1788 111.132 49.8936 122.979 49.8936 135.027V136.734H92.8651V135.027C92.8651 122.578 97.2827 110.731 104.612 100.791C109.632 93.9636 112.544 85.6304 112.544 76.4939Z" fill="#FCC12D"/>
<path d="M71.3366 76.7745L61.2388 94.9913L71.5638 98.4837L66.6826 114.103L78.8086 96.2264L67.8369 91.2838L71.3366 76.7745Z" fill="#335EB0" stroke="#335EB0" stroke-width="2" stroke-miterlimit="10" stroke-linecap="round"/>
<path d="M89.8575 148.182H49.2957C46.2837 148.182 43.7737 145.773 43.7737 142.66C43.7737 139.648 46.1833 137.138 49.2957 137.138H89.8575C92.8696 137.138 95.3796 139.548 95.3796 142.66C95.3796 145.672 92.8696 148.182 89.8575 148.182Z" fill="#70E0E9"/>
<path d="M86.8455 159.025H52.2072C49.396 159.025 47.1872 156.716 47.1872 154.005V153.403C47.1872 150.592 49.4964 148.383 52.2072 148.383H86.8455C89.6567 148.383 91.8655 150.692 91.8655 153.403V154.005C91.9659 156.716 89.6567 159.025 86.8455 159.025Z" fill="#70E0E9"/>
<path d="M55.3196 161.636V161.737C55.3196 166.255 58.934 169.869 63.452 169.869H75.7009C80.219 169.869 83.8334 166.255 83.8334 161.737V161.636C83.8334 160.23 82.6286 159.026 81.223 159.026H57.93C56.5244 159.026 55.3196 160.23 55.3196 161.636Z" fill="#70E0E9"/>
<path d="M111.134 75.4881C111.134 51.1911 90.15 31.8138 65.2507 34.625C46.6765 36.7334 31.516 51.5927 29.1064 70.1668C27.6004 81.7129 31.014 92.4558 37.4397 100.689C44.7689 110.126 48.4837 121.974 48.4837 134.022V135.728H91.4552V134.022C91.4552 121.572 95.8729 109.725 103.202 99.785C108.222 92.9578 111.134 84.5241 111.134 75.4881Z" stroke="#3362BE" stroke-width="5" stroke-miterlimit="10" stroke-linecap="round" stroke-linejoin="round"/>
<path d="M87.1381 157.515H52.4999C49.6886 157.515 47.4798 155.206 47.4798 152.495V151.893C47.4798 149.082 49.789 146.873 52.4999 146.873H87.1381C89.9493 146.873 92.1581 149.182 92.1581 151.893V152.495C92.1581 155.307 89.9493 157.515 87.1381 157.515Z" stroke="#3362BE" stroke-width="5" stroke-miterlimit="10" stroke-linecap="round" stroke-linejoin="round"/>
<path d="M55.5119 160.126V160.226C55.5119 164.744 59.1263 168.358 63.6443 168.358H75.8932C80.4112 168.358 84.0256 164.744 84.0256 160.226V160.126C84.0256 158.72 82.8208 157.515 81.4152 157.515H58.1223C56.7167 157.515 55.5119 158.72 55.5119 160.126Z" stroke="#3362BE" stroke-width="5" stroke-miterlimit="10" stroke-linecap="round" stroke-linejoin="round"/>
<path d="M43.4932 66.2402C45.6264 67.9947 49.788 66.4596 52.7885 62.8116C55.789 59.1635 56.492 54.7838 54.3588 53.0293C52.2256 51.2748 48.0639 52.8098 45.0635 56.4579C42.063 60.106 41.36 64.4857 43.4932 66.2402Z" fill="white"/>
<path d="M69.9696 20.5809V4.81799" stroke="#3362BE" stroke-width="5" stroke-miterlimit="10" stroke-linecap="round" stroke-linejoin="round"/>
<path d="M97.9814 27.5969L105.11 13.5408" stroke="#3362BE" stroke-width="5" stroke-miterlimit="10" stroke-linecap="round" stroke-linejoin="round"/>
<path d="M117.057 43.3597L126.495 37.1348" stroke="#3362BE" stroke-width="5" stroke-miterlimit="10" stroke-linecap="round" stroke-linejoin="round"/>
<path d="M123.885 65.3474L131.515 64.1426" stroke="#3362BE" stroke-width="5" stroke-miterlimit="10" stroke-linecap="round" stroke-linejoin="round"/>
<path d="M41.9577 27.5969L34.8293 13.5408" stroke="#3362BE" stroke-width="5" stroke-miterlimit="10" stroke-linecap="round" stroke-linejoin="round"/>
<path d="M22.8817 43.3597L13.444 37.1348" stroke="#3362BE" stroke-width="5" stroke-miterlimit="10" stroke-linecap="round" stroke-linejoin="round"/>
<path d="M16.0545 65.3474L8.42401 64.1426" stroke="#3362BE" stroke-width="5" stroke-miterlimit="10" stroke-linecap="round" stroke-linejoin="round"/>
<path d="M90.0498 146.672H49.4879C46.4759 146.672 43.9659 144.262 43.9659 141.15C43.9659 138.138 46.3755 135.628 49.4879 135.628H90.0498C93.0618 135.628 95.5718 138.037 95.5718 141.15C95.5718 144.262 93.0618 146.672 90.0498 146.672Z" stroke="#3362BE" stroke-width="5" stroke-miterlimit="10" stroke-linecap="round" stroke-linejoin="round"/>
<path d="M165.499 54.273H195.123V28.835H165.499V54.273ZM165.338 152H195.284V65.06H165.338V152ZM271.394 33.665V68.28C265.276 64.416 257.87 62.323 249.82 62.323C223.255 62.323 204.257 81.643 204.257 108.53C204.257 135.578 223.255 155.059 249.82 155.059C259.963 155.059 268.979 151.517 276.063 145.56L278.961 152H301.018V33.665H271.394ZM253.845 128.494C242.736 128.494 234.364 119.961 234.364 108.691C234.364 97.26 242.736 88.727 253.845 88.727C265.115 88.727 273.326 97.26 273.326 108.691C273.326 119.961 265.115 128.494 253.845 128.494ZM373.713 65.06L356.486 113.038L337.971 65.06H305.449L341.352 144.916C337.327 155.703 333.946 158.762 322.515 158.762H314.143V184.361H324.447C346.987 184.361 357.613 174.862 369.366 148.136L405.913 65.06H373.713ZM475.908 65.06L472.849 71.822C465.765 65.865 456.588 62.484 446.284 62.484C419.719 62.484 400.721 81.643 400.721 108.53C400.721 135.578 419.719 154.898 446.284 154.898C456.427 154.898 465.443 151.678 472.527 145.882L475.103 152H498.287V65.06H475.908ZM450.309 128.494C439.039 128.494 430.828 119.961 430.828 108.53C430.828 97.26 439.039 88.888 450.309 88.888C461.579 88.888 469.79 97.26 469.79 108.53C469.79 119.961 461.579 128.494 450.309 128.494Z" fill="#0098FF"/>
<path d="M165.499 54.273H161.499V58.273H165.499V54.273ZM195.123 54.273V58.273H199.123V54.273H195.123ZM195.123 28.835H199.123V24.835H195.123V28.835ZM165.499 28.835V24.835H161.499V28.835H165.499ZM165.338 152H161.338V156H165.338V152ZM195.284 152V156H199.284V152H195.284ZM195.284 65.06H199.284V61.06H195.284V65.06ZM165.338 65.06V61.06H161.338V65.06H165.338ZM165.499 58.273H195.123V50.273H165.499V58.273ZM199.123 54.273V28.835H191.123V54.273H199.123ZM195.123 24.835H165.499V32.835H195.123V24.835ZM161.499 28.835V54.273H169.499V28.835H161.499ZM165.338 156H195.284V148H165.338V156ZM199.284 152V65.06H191.284V152H199.284ZM195.284 61.06H165.338V69.06H195.284V61.06ZM161.338 65.06V152H169.338V65.06H161.338ZM271.394 33.665V29.665H267.394V33.665H271.394ZM271.394 68.28L269.258 71.662L275.394 75.5373V68.28H271.394ZM276.063 145.56L279.711 143.919L277.539 139.093L273.489 142.499L276.063 145.56ZM278.961 152L275.314 153.641L276.375 156H278.961V152ZM301.018 152V156H305.018V152H301.018ZM301.018 33.665H305.018V29.665H301.018V33.665ZM267.394 33.665V68.28H275.394V33.665H267.394ZM273.53 64.8981C266.724 60.5992 258.566 58.323 249.82 58.323V66.323C257.175 66.323 263.829 68.2329 269.258 71.662L273.53 64.8981ZM249.82 58.323C220.99 58.323 200.257 79.4901 200.257 108.53H208.257C208.257 83.796 225.52 66.323 249.82 66.323V58.323ZM200.257 108.53C200.257 137.703 220.963 159.059 249.82 159.059V151.059C225.548 151.059 208.257 133.453 208.257 108.53H200.257ZM249.82 159.059C260.931 159.059 270.853 155.168 278.638 148.621L273.489 142.499C267.105 147.867 258.995 151.059 249.82 151.059V159.059ZM272.416 147.201L275.314 153.641L282.609 150.359L279.711 143.919L272.416 147.201ZM278.961 156H301.018V148H278.961V156ZM305.018 152V33.665H297.018V152H305.018ZM301.018 29.665H271.394V37.665H301.018V29.665ZM253.845 124.494C245.01 124.494 238.364 117.817 238.364 108.691H230.364C230.364 122.105 240.463 132.494 253.845 132.494V124.494ZM238.364 108.691C238.364 99.3825 245.031 92.727 253.845 92.727V84.727C240.441 84.727 230.364 95.1376 230.364 108.691H238.364ZM253.845 92.727C262.799 92.727 269.326 99.3603 269.326 108.691H277.326C277.326 95.1597 267.432 84.727 253.845 84.727V92.727ZM269.326 108.691C269.326 117.839 262.82 124.494 253.845 124.494V132.494C267.411 132.494 277.326 122.083 277.326 108.691H269.326ZM373.713 65.06V61.06H370.9L369.949 63.7083L373.713 65.06ZM356.486 113.038L352.755 114.478L356.622 124.498L360.251 114.39L356.486 113.038ZM337.971 65.06L341.703 63.6199L340.715 61.06H337.971V65.06ZM305.449 65.06V61.06H299.265L301.801 66.7003L305.449 65.06ZM341.352 144.916L345.1 146.314L345.675 144.775L345.001 143.276L341.352 144.916ZM314.143 158.762V154.762H310.143V158.762H314.143ZM314.143 184.361H310.143V188.361H314.143V184.361ZM369.366 148.136L365.705 146.525L365.705 146.526L369.366 148.136ZM405.913 65.06L409.575 66.6707L412.043 61.06H405.913V65.06ZM369.949 63.7083L352.722 111.686L360.251 114.39L377.478 66.4118L369.949 63.7083ZM360.218 111.598L341.703 63.6199L334.24 66.5001L352.755 114.478L360.218 111.598ZM337.971 61.06H305.449V69.06H337.971V61.06ZM301.801 66.7003L337.704 146.556L345.001 143.276L309.098 63.4198L301.801 66.7003ZM337.605 143.518C335.612 148.86 334.081 151.338 332.289 152.701C330.589 153.994 328.001 154.762 322.515 154.762V162.762C328.461 162.762 333.279 162 337.133 159.067C340.896 156.204 343.068 151.759 345.1 146.314L337.605 143.518ZM322.515 154.762H314.143V162.762H322.515V154.762ZM310.143 158.762V184.361H318.143V158.762H310.143ZM314.143 188.361H324.447V180.361H314.143V188.361ZM324.447 188.361C336.328 188.361 345.623 185.838 353.494 179.359C361.188 173.025 367.091 163.248 373.028 149.746L365.705 146.526C359.889 159.75 354.602 168.085 348.41 173.183C342.395 178.134 335.107 180.361 324.447 180.361V188.361ZM373.028 149.747L409.575 66.6707L402.252 63.4493L365.705 146.525L373.028 149.747ZM405.913 61.06H373.713V69.06H405.913V61.06ZM475.908 65.06V61.06H473.328L472.264 63.4114L475.908 65.06ZM472.849 71.822L470.275 74.8835L474.317 78.2825L476.494 73.4707L472.849 71.822ZM472.527 145.882L476.214 144.33L474.137 139.397L469.994 142.786L472.527 145.882ZM475.103 152L471.417 153.552L472.447 156H475.103V152ZM498.287 152V156H502.287V152H498.287ZM498.287 65.06H502.287V61.06H498.287V65.06ZM472.264 63.4114L469.205 70.1734L476.494 73.4707L479.553 66.7087L472.264 63.4114ZM475.424 68.7606C467.586 62.1695 457.486 58.484 446.284 58.484V66.484C455.691 66.484 463.945 69.5605 470.275 74.8835L475.424 68.7606ZM446.284 58.484C417.473 58.484 396.721 79.4714 396.721 108.53H404.721C404.721 83.8146 421.966 66.484 446.284 66.484V58.484ZM396.721 108.53C396.721 137.722 417.445 158.898 446.284 158.898V150.898C421.993 150.898 404.721 133.434 404.721 108.53H396.721ZM446.284 158.898C457.3 158.898 467.223 155.39 475.06 148.978L469.994 142.786C463.663 147.966 455.555 150.898 446.284 150.898V158.898ZM468.841 147.434L471.417 153.552L478.79 150.448L476.214 144.33L468.841 147.434ZM475.103 156H498.287V148H475.103V156ZM502.287 152V65.06H494.287V152H502.287ZM498.287 61.06H475.908V69.06H498.287V61.06ZM450.309 124.494C441.356 124.494 434.828 117.861 434.828 108.53H426.828C426.828 122.061 436.723 132.494 450.309 132.494V124.494ZM434.828 108.53C434.828 99.4254 441.292 92.888 450.309 92.888V84.888C436.787 84.888 426.828 95.0946 426.828 108.53H434.828ZM450.309 92.888C459.327 92.888 465.79 99.4254 465.79 108.53H473.79C473.79 95.0946 463.832 84.888 450.309 84.888V92.888ZM465.79 108.53C465.79 117.861 459.263 124.494 450.309 124.494V132.494C463.896 132.494 473.79 122.061 473.79 108.53H465.79Z" fill="white"/>
<rect x="275.4" y="28" width="21.6" height="14" fill="#0098FF"/>
</g>
<defs>
<clipPath id="clip0">
<rect width="500" height="184" fill="white"/>
</clipPath>
</defs>
</svg>
